<svg xmlns="http://www.w3.org/2000/svg" xmlns:xlink="http://www.w3.org/1999/xlink" width="150" zoomAndPan="magnify" viewBox="0 0 112.5 112.499997" height="150" preserveAspectRatio="xMidYMid meet" version="1.2"><defs><clipPath id="809b95ba59"><path d="M 23 10 L 103.648438 10 L 103.648438 84 L 23 84 Z M 23 10 "/></clipPath><clipPath id="87d0515eac"><path d="M 8.070312 13 L 82 13 L 82 61 L 8.070312 61 Z M 8.070312 13 "/></clipPath><clipPath id="fef2d01c06"><path d="M 11 36 L 97 36 L 97 101.75 L 11 101.75 Z M 11 36 "/></clipPath></defs><g id="289692774f"><g clip-rule="nonzero" clip-path="url(#809b95ba59)"><path style=" stroke:none;fill-rule:nonzero;fill:#37bba3;fill-opacity:1;" d="M 101.296875 11.460938 C 99.34375 9.910156 96.5 10.230469 94.945312 12.1875 L 48.832031 70.179688 L 31.484375 52.828125 C 29.71875 51.066406 26.855469 51.066406 25.089844 52.828125 C 23.328125 54.59375 23.328125 57.457031 25.089844 59.21875 L 49.605469 83.734375 L 102.023438 17.8125 C 103.574219 15.859375 103.25 13.015625 101.296875 11.460938 Z M 101.296875 11.460938 "/></g><g clip-rule="nonzero" clip-path="url(#87d0515eac)"><path style=" stroke:none;fill-rule:nonzero;fill:#37bba3;fill-opacity:1;" d="M 14.660156 57.410156 C 14.660156 52.308594 15.65625 47.367188 17.625 42.710938 C 18.570312 40.476562 19.742188 38.320312 21.105469 36.300781 C 22.457031 34.300781 24.007812 32.421875 25.71875 30.710938 C 27.425781 29 29.304688 27.449219 31.308594 26.097656 C 33.324219 24.730469 35.484375 23.5625 37.722656 22.617188 C 42.375 20.648438 47.320312 19.652344 52.417969 19.652344 C 57.515625 19.652344 62.457031 20.648438 67.113281 22.617188 C 69.351562 23.5625 71.507812 24.730469 73.527344 26.097656 C 74.707031 26.894531 75.847656 27.761719 76.933594 28.691406 L 81.035156 23.53125 C 79.8125 22.496094 78.535156 21.53125 77.214844 20.636719 C 74.84375 19.035156 72.308594 17.660156 69.679688 16.550781 C 64.210938 14.234375 58.402344 13.0625 52.417969 13.0625 C 46.433594 13.0625 40.621094 14.242188 35.152344 16.550781 C 32.523438 17.664062 29.992188 19.042969 27.617188 20.640625 C 25.269531 22.226562 23.066406 24.046875 21.058594 26.054688 C 19.050781 28.0625 17.230469 30.265625 15.644531 32.617188 C 14.046875 34.984375 12.667969 37.523438 11.558594 40.148438 C 9.246094 45.617188 8.074219 51.425781 8.074219 57.410156 C 8.074219 59.226562 9.546875 60.703125 11.363281 60.703125 C 13.183594 60.703125 14.660156 59.226562 14.660156 57.410156 Z M 14.660156 57.410156 "/></g><g clip-rule="nonzero" clip-path="url(#fef2d01c06)"><path style=" stroke:none;fill-rule:nonzero;fill:#37bba3;fill-opacity:1;" d="M 91.621094 36.679688 L 87.070312 42.402344 C 87.113281 42.503906 87.160156 42.609375 87.203125 42.714844 C 89.171875 47.363281 90.167969 52.308594 90.167969 57.410156 C 90.167969 62.507812 89.171875 67.449219 87.203125 72.105469 C 86.257812 74.34375 85.089844 76.496094 83.722656 78.519531 C 82.371094 80.515625 80.820312 82.398438 79.113281 84.109375 C 77.402344 85.816406 75.523438 87.371094 73.519531 88.722656 C 71.503906 90.085938 69.34375 91.253906 67.109375 92.203125 C 62.457031 94.167969 57.511719 95.164062 52.414062 95.164062 C 49.367188 95.164062 46.34375 94.804688 43.417969 94.089844 C 40.578125 93.398438 37.8125 92.367188 35.207031 91.03125 C 32.644531 89.714844 30.230469 88.101562 28.027344 86.238281 C 27.554688 85.835938 27.085938 85.421875 26.632812 84.996094 L 31.777344 79.851562 C 32.34375 79.285156 32.058594 78.320312 31.277344 78.152344 L 12.484375 74.136719 C 11.769531 73.984375 11.136719 74.617188 11.289062 75.332031 L 15.296875 94.125 C 15.464844 94.910156 16.433594 95.195312 16.996094 94.628906 L 21.976562 89.648438 C 22.558594 90.203125 23.15625 90.738281 23.769531 91.257812 C 26.359375 93.449219 29.195312 95.339844 32.203125 96.886719 C 35.269531 98.457031 38.515625 99.667969 41.859375 100.484375 C 45.296875 101.324219 48.847656 101.75 52.417969 101.75 C 58.402344 101.75 64.210938 100.578125 69.679688 98.265625 C 72.308594 97.15625 74.839844 95.777344 77.214844 94.175781 C 79.5625 92.589844 81.765625 90.769531 83.773438 88.761719 C 85.777344 86.757812 87.601562 84.550781 89.1875 82.203125 C 90.789062 79.832031 92.164062 77.296875 93.277344 74.667969 C 95.589844 69.199219 96.761719 63.390625 96.761719 57.40625 C 96.761719 51.421875 95.589844 45.613281 93.277344 40.144531 C 92.769531 38.972656 92.222656 37.8125 91.621094 36.679688 Z M 91.621094 36.679688 "/></g></g></svg>