<svg xmlns="http://www.w3.org/2000/svg" xmlns:xlink="http://www.w3.org/1999/xlink" width="150" zoomAndPan="magnify" viewBox="0 0 112.5 112.499997" height="150" preserveAspectRatio="xMidYMid meet" version="1.2"><defs><clipPath id="da10758529"><path d="M 4 5.199219 L 108.164062 5.199219 L 108.164062 106.746094 L 4 106.746094 Z M 4 5.199219 "/></clipPath></defs><g id="703c5b4d9c"><g clip-rule="nonzero" clip-path="url(#da10758529)"><path style=" stroke:none;fill-rule:evenodd;fill:#37bba3;fill-opacity:1;" d="M 40.921875 7.09375 C 40.921875 6.050781 40.074219 5.203125 39.03125 5.203125 L 30.160156 5.203125 C 29.117188 5.203125 28.269531 6.050781 28.269531 7.09375 L 28.269531 16.75 C 28.269531 17.792969 29.117188 18.640625 30.160156 18.640625 C 31.207031 18.640625 32.054688 17.792969 32.054688 16.75 L 32.054688 8.988281 L 39.03125 8.988281 C 40.074219 8.988281 40.921875 8.140625 40.921875 7.09375 Z M 97.625 85.472656 L 104.601562 85.472656 L 104.601562 77.710938 C 104.601562 76.667969 105.449219 75.820312 106.492188 75.820312 C 107.539062 75.820312 108.382812 76.667969 108.382812 77.710938 L 108.382812 87.363281 C 108.382812 88.410156 107.539062 89.257812 106.492188 89.257812 L 97.625 89.257812 C 96.582031 89.257812 95.734375 88.410156 95.734375 87.363281 C 95.734375 86.320312 96.582031 85.472656 97.625 85.472656 Z M 106.492188 18.640625 C 105.449219 18.640625 104.601562 17.792969 104.601562 16.75 L 104.601562 8.988281 L 97.625 8.988281 C 96.582031 8.988281 95.734375 8.140625 95.734375 7.09375 C 95.734375 6.050781 96.582031 5.203125 97.625 5.203125 L 106.492188 5.203125 C 107.539062 5.203125 108.382812 6.050781 108.382812 7.09375 L 108.382812 16.75 C 108.382812 17.792969 107.539062 18.640625 106.492188 18.640625 Z M 48.082031 50.230469 C 45.636719 54.464844 48.695312 59.765625 53.585938 59.765625 L 81.429688 59.765625 C 86.320312 59.765625 89.378906 54.464844 86.933594 50.230469 L 73.015625 26.117188 C 70.582031 21.90625 64.433594 21.90625 62.003906 26.117188 Z M 69.59375 33.832031 L 69.171875 45.480469 C 69.140625 46.375 68.402344 47.085938 67.507812 47.085938 C 66.613281 47.085938 65.878906 46.375 65.84375 45.480469 L 65.425781 33.832031 C 65.40625 33.363281 65.5625 32.953125 65.890625 32.617188 C 66.585938 31.894531 68.429688 31.894531 69.125 32.617188 C 69.453125 32.953125 69.609375 33.363281 69.59375 33.832031 Z M 65.375 53.023438 C 65.375 51.847656 66.332031 50.890625 67.507812 50.890625 C 68.6875 50.890625 69.640625 51.847656 69.640625 53.023438 C 69.640625 54.199219 68.6875 55.15625 67.507812 55.15625 C 66.332031 55.15625 65.375 54.199219 65.375 53.023438 Z M 5.03125 98.335938 L 11.824219 105.335938 C 13.019531 106.566406 15 106.59375 16.230469 105.402344 L 35.039062 87.148438 C 36.269531 85.957031 36.300781 83.972656 35.105469 82.742188 L 34.71875 82.34375 L 45.207031 72.082031 C 51.199219 77.226562 58.992188 80.335938 67.507812 80.335938 C 86.425781 80.335938 101.765625 65 101.765625 46.082031 C 101.765625 27.160156 86.425781 11.824219 67.507812 11.824219 C 48.589844 11.824219 33.25 27.160156 33.25 46.082031 C 33.25 53.367188 35.527344 60.121094 39.40625 65.671875 L 28.703125 76.144531 L 28.316406 75.746094 C 27.121094 74.515625 25.140625 74.484375 23.910156 75.679688 L 5.097656 93.933594 C 3.871094 95.125 3.839844 97.105469 5.03125 98.335938 Z M 39.710938 46.082031 C 39.710938 30.730469 52.15625 18.285156 67.507812 18.285156 C 82.859375 18.285156 95.304688 30.730469 95.304688 46.082031 C 95.304688 61.433594 82.859375 73.875 67.507812 73.875 C 52.15625 73.875 39.710938 61.433594 39.710938 46.082031 Z M 39.710938 46.082031 "/></g></g></svg>