<svg xmlns="http://www.w3.org/2000/svg" xmlns:xlink="http://www.w3.org/1999/xlink" width="150" zoomAndPan="magnify" viewBox="0 0 112.5 112.499997" height="150" preserveAspectRatio="xMidYMid meet" version="1.2"><defs><clipPath id="385eeb0269"><path d="M 54 4.871094 L 58 4.871094 L 58 16 L 54 16 Z M 54 4.871094 "/></clipPath><clipPath id="794600efed"><path d="M 97 55 L 108.164062 55 L 108.164062 59 L 97 59 Z M 97 55 "/></clipPath><clipPath id="ba5efad756"><path d="M 3.628906 55 L 15 55 L 15 59 L 3.628906 59 Z M 3.628906 55 "/></clipPath></defs><g id="db79a6ba4e"><path style=" stroke:none;fill-rule:nonzero;fill:#37bba3;fill-opacity:1;" d="M 55.894531 28.375 C 62.683594 28.378906 68.828125 31.132812 73.273438 35.578125 C 77.722656 40.027344 80.472656 46.171875 80.472656 52.953125 C 80.472656 61.148438 77.996094 64.175781 75.371094 67.386719 C 72.800781 70.53125 70.0625 73.878906 70.0625 84.265625 C 70.0625 85.164062 69.328125 85.898438 68.429688 85.898438 L 43.363281 85.898438 C 42.460938 85.898438 41.730469 85.164062 41.730469 84.265625 C 41.730469 73.878906 38.992188 70.53125 36.421875 67.386719 C 33.796875 64.175781 31.320312 61.148438 31.320312 52.953125 C 31.320312 46.171875 34.070312 40.027344 38.515625 35.578125 C 42.964844 31.132812 49.109375 28.378906 55.894531 28.375 Z M 70.964844 37.878906 C 67.109375 34.019531 61.78125 31.632812 55.894531 31.628906 C 50.011719 31.632812 44.683594 34.019531 40.828125 37.878906 C 36.972656 41.734375 34.585938 47.066406 34.585938 52.953125 C 34.585938 59.988281 36.703125 62.574219 38.949219 65.320312 C 41.734375 68.726562 44.691406 72.34375 44.972656 82.628906 L 66.816406 82.628906 C 67.097656 72.34375 70.054688 68.726562 72.84375 65.320312 C 75.085938 62.574219 77.203125 59.988281 77.203125 52.953125 C 77.203125 47.066406 74.820312 41.734375 70.964844 37.878906 Z M 70.964844 37.878906 "/><path style=" stroke:none;fill-rule:nonzero;fill:#37bba3;fill-opacity:1;" d="M 41.15625 82.628906 L 70.636719 82.628906 C 71.539062 82.628906 72.269531 83.363281 72.269531 84.265625 L 72.269531 90.496094 C 72.269531 91.398438 71.539062 92.128906 70.636719 92.128906 L 41.15625 92.128906 C 40.253906 92.128906 39.519531 91.398438 39.519531 90.496094 L 39.519531 84.265625 C 39.519531 83.363281 40.253906 82.628906 41.15625 82.628906 Z M 69.003906 85.898438 L 42.789062 85.898438 L 42.789062 88.859375 L 69.003906 88.859375 Z M 69.003906 85.898438 "/><path style=" stroke:none;fill-rule:nonzero;fill:#37bba3;fill-opacity:1;" d="M 43.285156 88.859375 L 68.664062 88.859375 C 69.566406 88.859375 70.296875 89.59375 70.296875 90.496094 L 70.296875 96.726562 C 70.296875 97.628906 69.566406 98.359375 68.664062 98.359375 L 43.285156 98.359375 C 42.382812 98.359375 41.652344 97.628906 41.652344 96.726562 L 41.652344 90.496094 C 41.652344 89.59375 42.382812 88.859375 43.285156 88.859375 Z M 67.03125 92.128906 L 44.917969 92.128906 L 44.917969 95.089844 L 67.03125 95.089844 Z M 67.03125 92.128906 "/><path style=" stroke:none;fill-rule:nonzero;fill:#37bba3;fill-opacity:1;" d="M 46.589844 95.089844 L 65.359375 95.089844 C 66.261719 95.089844 66.992188 95.824219 66.992188 96.726562 C 66.992188 101.632812 64.089844 104.773438 60.375 106.148438 C 58.980469 106.664062 57.472656 106.921875 55.972656 106.921875 C 54.476562 106.921875 52.96875 106.660156 51.574219 106.148438 C 47.859375 104.773438 44.957031 101.632812 44.957031 96.726562 C 44.957031 95.824219 45.6875 95.089844 46.589844 95.089844 Z M 63.550781 98.359375 L 48.398438 98.359375 C 48.929688 100.742188 50.625 102.320312 52.695312 103.085938 C 53.722656 103.464844 54.84375 103.652344 55.972656 103.652344 C 57.101562 103.652344 58.226562 103.464844 59.25 103.085938 C 61.324219 102.320312 63.019531 100.742188 63.550781 98.359375 Z M 63.550781 98.359375 "/><path style=" stroke:none;fill-rule:nonzero;fill:#37bba3;fill-opacity:1;" d="M 54.261719 84.265625 C 54.261719 85.167969 54.992188 85.898438 55.894531 85.898438 C 56.796875 85.898438 57.527344 85.167969 57.527344 84.265625 L 57.527344 65.335938 C 57.527344 64.433594 56.796875 63.703125 55.894531 63.703125 C 54.992188 63.703125 54.261719 64.433594 54.261719 65.335938 Z M 54.261719 84.265625 "/><path style=" stroke:none;fill-rule:nonzero;fill:#37bba3;fill-opacity:1;" d="M 67.535156 56.007812 C 68.171875 55.367188 68.171875 54.335938 67.535156 53.695312 C 66.898438 53.058594 65.863281 53.058594 65.226562 53.695312 L 55.894531 63.027344 L 46.566406 53.695312 C 45.929688 53.058594 44.894531 53.058594 44.257812 53.695312 C 43.617188 54.335938 43.617188 55.367188 44.257812 56.007812 L 54.742188 66.492188 C 55.378906 67.128906 56.414062 67.128906 57.050781 66.492188 Z M 67.535156 56.007812 "/><g clip-rule="nonzero" clip-path="url(#385eeb0269)"><path style=" stroke:none;fill-rule:nonzero;fill:#37bba3;fill-opacity:1;" d="M 57.527344 6.5 C 57.527344 5.597656 56.796875 4.867188 55.894531 4.867188 C 54.992188 4.867188 54.261719 5.597656 54.261719 6.5 L 54.261719 13.753906 C 54.261719 14.65625 54.992188 15.390625 55.894531 15.390625 C 56.796875 15.390625 57.527344 14.65625 57.527344 13.753906 Z M 57.527344 6.5 "/></g><path style=" stroke:none;fill-rule:nonzero;fill:#37bba3;fill-opacity:1;" d="M 82.621094 14.09375 C 83.070312 13.316406 82.800781 12.320312 82.023438 11.875 C 81.242188 11.425781 80.25 11.695312 79.800781 12.472656 L 76.175781 18.757812 C 75.726562 19.535156 75.996094 20.53125 76.773438 20.976562 C 77.554688 21.425781 78.546875 21.15625 78.996094 20.378906 Z M 82.621094 14.09375 "/><path style=" stroke:none;fill-rule:nonzero;fill:#37bba3;fill-opacity:1;" d="M 100.554688 33.226562 C 101.335938 32.78125 101.601562 31.785156 101.15625 31.007812 C 100.707031 30.226562 99.714844 29.960938 98.933594 30.40625 L 92.652344 34.035156 C 91.875 34.480469 91.605469 35.476562 92.050781 36.253906 C 92.5 37.035156 93.492188 37.300781 94.273438 36.855469 Z M 100.554688 33.226562 "/><g clip-rule="nonzero" clip-path="url(#794600efed)"><path style=" stroke:none;fill-rule:nonzero;fill:#37bba3;fill-opacity:1;" d="M 106.53125 58.765625 C 107.429688 58.765625 108.164062 58.035156 108.164062 57.132812 C 108.164062 56.230469 107.429688 55.5 106.53125 55.5 L 99.273438 55.5 C 98.371094 55.5 97.640625 56.230469 97.640625 57.132812 C 97.640625 58.035156 98.371094 58.765625 99.273438 58.765625 Z M 106.53125 58.765625 "/></g><path style=" stroke:none;fill-rule:nonzero;fill:#37bba3;fill-opacity:1;" d="M 98.933594 83.859375 C 99.714844 84.308594 100.707031 84.039062 101.15625 83.261719 C 101.601562 82.480469 101.335938 81.488281 100.554688 81.039062 L 94.273438 77.414062 C 93.492188 76.964844 92.5 77.234375 92.050781 78.011719 C 91.605469 78.792969 91.875 79.785156 92.652344 80.234375 Z M 98.933594 83.859375 "/><path style=" stroke:none;fill-rule:nonzero;fill:#37bba3;fill-opacity:1;" d="M 11.234375 81.039062 C 10.457031 81.488281 10.1875 82.480469 10.636719 83.261719 C 11.082031 84.039062 12.078125 84.308594 12.855469 83.859375 L 19.140625 80.234375 C 19.917969 79.785156 20.1875 78.792969 19.738281 78.011719 C 19.292969 77.234375 18.296875 76.964844 17.519531 77.414062 Z M 11.234375 81.039062 "/><g clip-rule="nonzero" clip-path="url(#ba5efad756)"><path style=" stroke:none;fill-rule:nonzero;fill:#37bba3;fill-opacity:1;" d="M 5.261719 55.5 C 4.359375 55.5 3.628906 56.230469 3.628906 57.132812 C 3.628906 58.035156 4.359375 58.765625 5.261719 58.765625 L 12.515625 58.765625 C 13.417969 58.765625 14.152344 58.035156 14.152344 57.132812 C 14.152344 56.230469 13.417969 55.5 12.515625 55.5 Z M 5.261719 55.5 "/></g><path style=" stroke:none;fill-rule:nonzero;fill:#37bba3;fill-opacity:1;" d="M 12.855469 30.40625 C 12.078125 29.960938 11.082031 30.226562 10.636719 31.007812 C 10.1875 31.785156 10.457031 32.78125 11.234375 33.226562 L 17.519531 36.855469 C 18.296875 37.300781 19.292969 37.035156 19.738281 36.253906 C 20.1875 35.476562 19.917969 34.480469 19.140625 34.035156 Z M 12.855469 30.40625 "/><path style=" stroke:none;fill-rule:nonzero;fill:#37bba3;fill-opacity:1;" d="M 31.988281 12.472656 C 31.539062 11.695312 30.546875 11.425781 29.769531 11.875 C 28.988281 12.320312 28.722656 13.316406 29.167969 14.09375 L 32.796875 20.378906 C 33.242188 21.15625 34.238281 21.425781 35.015625 20.976562 C 35.792969 20.53125 36.0625 19.535156 35.617188 18.757812 Z M 31.988281 12.472656 "/></g></svg>