<?xml version="1.0" encoding="UTF-8"?>
<svg id="Camada_2" data-name="Camada 2" xmlns="http://www.w3.org/2000/svg" viewBox="0 0 215.31 189.81">
  <defs>
    <style>
      .cls-1 {
        fill: #31bca5;
      }
    </style>
  </defs>
  <g id="Camada_1-2" data-name="Camada 1">
    <g>
      <path class="cls-1" d="M32.34,157.47h55.71l32.34,32.34H16.38c-9.05,0-16.38-7.33-16.38-16.38V16.43C0,7.35,7.35,0,16.43,0h55.27l32.34,32.34,56.6,56.59v45.37L58.68,32.34h-26.34v125.14Z"/>
      <path class="cls-1" d="M215.31,16.52v156.81c0,9.1-7.38,16.48-16.48,16.48h-58.6l-32.34-32.34-53.07-53.07v-45.9l95.96,95.96,2.77,3.01h29.56V32.34h-59.24L91.55,0h107.24c9.12,0,16.52,7.4,16.52,16.52Z"/>
    </g>
  </g>
</svg>