<?xml version="1.0" encoding="UTF-8"?>
<svg id="Camada_2" data-name="Camada 2" xmlns="http://www.w3.org/2000/svg" viewBox="0 0 128.52 107.1">
  <g id="Camada_1-2" data-name="Camada 1">
    <path d="M109.77,16.06h-37.48c-10.35,0-18.74,8.39-18.74,18.74v24.1H16.06V0H0v107.1h16.06v-16.06h96.39v16.06h16.06V34.81c0-10.35-8.39-18.74-18.74-18.74ZM69.61,58.9v-24.1c0-1.48,1.2-2.68,2.68-2.68h37.48c1.48,0,2.68,1.2,2.68,2.68v24.1h-42.84ZM34.81,53.55c-7.39,0-13.39-5.99-13.39-13.39s5.99-13.39,13.39-13.39,13.39,5.99,13.39,13.39-5.99,13.39-13.39,13.39Z"/>
  </g>
</svg>