<?xml version="1.0" encoding="UTF-8"?>
<svg id="Camada_2" data-name="Camada 2" xmlns="http://www.w3.org/2000/svg" viewBox="0 0 106.42 106.42">
  <g id="Camada_1-2" data-name="Camada 1">
    <path d="M53.21,75.38c-9.8,0-17.74-7.94-17.74-17.74s7.94-17.74,17.74-17.74,17.74,7.94,17.74,17.74-7.94,17.74-17.74,17.74ZM79.81,93.12c0-7.35-5.96-13.3-13.3-13.3h-26.6c-7.35,0-13.3,5.96-13.3,13.3v13.3h53.21v-13.3ZM79.81,35.47c-9.8,0-17.74-7.94-17.74-17.74S70.02,0,79.81,0s17.74,7.94,17.74,17.74-7.94,17.74-17.74,17.74ZM26.6,35.47c-9.8,0-17.74-7.94-17.74-17.74S16.81,0,26.6,0s17.74,7.94,17.74,17.74-7.94,17.74-17.74,17.74ZM26.6,57.64c0-6.55,2.43-12.87,6.82-17.74H13.3c-7.35,0-13.3,5.96-13.3,13.3v13.3h28.15c-1.02-2.85-1.54-5.85-1.55-8.87ZM78.27,66.51h28.15v-13.3c0-7.35-5.96-13.3-13.3-13.3h-20.12c6.53,7.22,8.55,17.44,5.27,26.6h0Z"/>
  </g>
</svg>