<?xml version="1.0" encoding="UTF-8"?>
<svg id="Camada_2" data-name="Camada 2" xmlns="http://www.w3.org/2000/svg" viewBox="0 0 108.08 108.08">
  <g id="Camada_1-2" data-name="Camada 1">
    <path d="M100.16,10.02c-5.91-4.58-15.59-10.02-28.11-10.02h-36.03C23.49,0,13.82,5.45,7.91,10.03,2.88,13.92,0,19.79,0,26.11v68.46h22.52v13.51h63.05v-13.51h22.52V26.11c0-6.32-2.89-12.18-7.92-16.08ZM94.57,81.06h-9.01V31.52h-13.51v63.05h-36.03V31.52h-13.51v49.54h-9.01V26.11c0-2.11.98-4.08,2.68-5.39,4.24-3.28,12.33-7.2,21.04-7.2,3.63,5.43,9.79,9.01,16.81,9.01s13.18-3.58,16.81-9.01c8.71,0,16.81,3.92,21.04,7.2,1.7,1.32,2.68,3.29,2.68,5.4v54.95Z"/>
  </g>
</svg>