<?xml version="1.0" encoding="UTF-8"?>
<svg id="Camada_2" data-name="Camada 2" xmlns="http://www.w3.org/2000/svg" viewBox="0 0 112.79 112.8">
  <g id="Camada_1-2" data-name="Camada 1">
    <path d="M112.34,79.7c-4.96-24.04-13.84-47.03-14.52-48.76C91,12.43,71.66,0,49.67,0,22.28,0,0,22.28,0,49.67c0,5.18,1.42,20.85,2.67,29.42,1.65,11.32,10.78,20.32,22.22,21.89,17.23,2.36,33.27,4.82,55.07,11.02,1.91.54,3.85.8,5.77.8,6.73,0,13.19-3.21,17.06-8.7l6.13-7.9c3.36-4.76,4.61-10.78,3.43-16.52h0ZM51.7,51.7c0,2.59-2.11,4.7-4.7,4.7s-4.7-2.11-4.7-4.7,2.11-4.7,4.7-4.7,4.7,2.11,4.7,4.7ZM65.13,47h23.49c2.27,6.68,5.14,15.77,7.6,25.52l-33.38-10.78c1.85-2.91,2.96-6.34,2.96-10.04,0-1.63-.27-3.19-.67-4.7ZM91.47,95.71c-1.72,2.44-4.79,3.53-7.65,2.72-22.68-6.44-39.24-8.98-57-11.42-5.33-.73-9.43-4.73-10.19-9.95-1.22-8.37-2.52-23.23-2.52-27.39,0-19.61,15.96-35.57,35.57-35.57,14.85,0,27.84,7.46,33.55,18.8h-36.21c-10.21.22-18.84,8.32-18.8,18.8,0,8.71,5.98,15.98,14.03,18.11.84.54,54.47,17.59,55.39,17.98,0,0-6.15,7.92-6.15,7.92h0Z"/>
  </g>
</svg>