<?xml version="1.0" encoding="UTF-8"?>
<svg id="Camada_2" data-name="Camada 2" xmlns="http://www.w3.org/2000/svg" viewBox="0 0 106.42 106.42">
  <g id="Camada_1-2" data-name="Camada 1">
    <path d="M53.21,106.42c-7.14,0-13.88-2.96-18.7-8.07-7,.19-13.87-2.46-18.93-7.51-5.05-5.05-7.72-11.91-7.52-18.93C2.96,67.09,0,60.36,0,53.21s2.96-13.88,8.07-18.7c-.2-7.02,2.47-13.87,7.52-18.93,5.06-5.05,11.91-7.77,18.93-7.52C39.32,2.96,46.06,0,53.21,0s13.88,2.96,18.7,8.07c6.97-.25,13.87,2.46,18.93,7.51,5.05,5.05,7.72,11.91,7.52,18.93,5.11,4.82,8.07,11.55,8.07,18.7s-2.96,13.88-8.07,18.7c.2,7.02-2.47,13.87-7.52,18.93-5.06,5.05-11.95,7.71-18.93,7.52-4.82,5.11-11.55,8.07-18.7,8.07h0ZM40.46,83.99l2.47,3.65c2.31,3.43,6.16,5.48,10.28,5.48s7.97-2.05,10.28-5.48l2.47-3.65,4.32.84c4.08.79,8.23-.48,11.15-3.4,2.91-2.92,4.19-7.09,3.4-11.15l-.83-4.32,3.64-2.46c3.43-2.31,5.48-6.16,5.48-10.29s-2.05-7.97-5.48-10.29l-3.64-2.46.83-4.32c.79-4.07-.48-8.23-3.4-11.15-2.92-2.92-7.07-4.19-11.15-3.4l-4.32.84-2.47-3.65c-2.31-3.43-6.16-5.48-10.28-5.48s-7.97,2.05-10.28,5.48l-2.47,3.65-4.32-.84c-4.07-.79-8.23.48-11.15,3.4-2.91,2.92-4.19,7.09-3.4,11.15l.83,4.32-3.64,2.46c-3.43,2.31-5.48,6.16-5.48,10.29s2.05,7.97,5.48,10.29l3.64,2.46-.83,4.32c-.79,4.07.48,8.23,3.4,11.15,2.92,2.92,7.08,4.19,11.15,3.4l4.32-.84h0ZM46.57,70.95c-2.84,0-5.68-1.08-7.85-3.25l-12.31-11.93,9.26-9.55,10.88,10.54,21.95-21.59,9.33,9.48-23.47,23.09c-2.13,2.14-4.96,3.21-7.79,3.21h0ZM45.01,58.27l-.03.03.03-.03ZM48.02,58.19l.04.04-.04-.04Z"/>
  </g>
</svg>