<?xml version="1.0" encoding="UTF-8"?>
<svg id="Camada_2" data-name="Camada 2" xmlns="http://www.w3.org/2000/svg" viewBox="0 0 106.42 106.42">
  <g id="Camada_1-2" data-name="Camada 1">
    <path d="M73.16,0c-18.96,0-33.26,8.58-33.26,19.95,0,.89.09,1.76.26,2.61-2.22-.26-4.53-.39-6.91-.39-18.96,0-33.26,8.58-33.26,19.95v44.34c0,11.37,14.3,19.95,33.26,19.95s33.26-8.58,33.26-19.95v-2.59c2.18.25,4.41.38,6.65.38,18.96,0,33.26-8.58,33.26-19.95V19.95c0-11.37-14.3-19.95-33.26-19.95ZM73.16,13.3c12.88,0,19.95,4.99,19.95,6.65s-7.08,6.65-19.95,6.65-19.95-4.99-19.95-6.65,7.08-6.65,19.95-6.65ZM33.26,35.47c12.88,0,19.95,4.99,19.95,6.65s-7.08,6.65-19.95,6.65-19.95-4.99-19.95-6.65,7.08-6.65,19.95-6.65ZM13.3,58.3c5.49,2.39,12.34,3.77,19.95,3.77s14.47-1.38,19.95-3.77v5.99c0,1.66-7.08,6.65-19.95,6.65s-19.95-4.99-19.95-6.65v-5.99ZM33.26,93.12c-12.88,0-19.95-4.99-19.95-6.65v-5.99c5.49,2.39,12.34,3.77,19.95,3.77s14.47-1.38,19.95-3.77v5.99c0,1.66-7.08,6.65-19.95,6.65ZM73.16,70.95c-2.27,0-4.51-.16-6.65-.48v-8.76c2.18.25,4.41.38,6.65.38,7.61,0,14.47-1.38,19.95-3.77v5.99c0,1.66-7.08,6.65-19.95,6.65ZM73.16,48.78c-2.27,0-4.51-.16-6.65-.48v-6.17c0-.89-.09-1.76-.26-2.61,2.22.26,4.53.39,6.91.39,7.61,0,14.47-1.38,19.95-3.77v5.99c0,1.66-7.08,6.65-19.95,6.65Z"/>
  </g>
</svg>