<?xml version="1.0" encoding="UTF-8"?>
<svg id="Camada_2" data-name="Camada 2" xmlns="http://www.w3.org/2000/svg" viewBox="0 0 123.8 92.85">
  <g id="Camada_1-2" data-name="Camada 1">
    <path d="M63.03.95c-2.05-1.12-4.49-1.25-6.65-.37-2.16.89-3.8,2.7-4.47,4.94-1.91,6.35-8.53,20.28-15.8,20.28s-13.03-5.98-16.71-10.99c-2.76-3.76-7.58-5.3-12-3.86C2.98,12.39,0,16.49,0,21.16v33c0,8.79,4.02,16.66,10.32,21.87v9.08c0,4.27,3.46,7.74,7.74,7.74s7.74-3.47,7.74-7.74v-2.71c.85.08,1.71.13,2.58.13h7.74v2.58c0,4.27,3.46,7.74,7.74,7.74s7.74-3.47,7.74-7.74v-2.58h20.63v2.58c0,4.27,3.46,7.74,7.74,7.74s7.74-3.47,7.74-7.74v-2.58h10.32v2.58c0,4.27,3.46,7.74,7.74,7.74s7.74-3.47,7.74-7.74v-6.51c6.22-4.17,10.32-11.26,10.32-19.28v-2.58c0-21.02-46.52-48.02-60.78-55.79ZM15.48,54.16v-20.95c6.33,5.3,13.32,8.05,20.63,8.05,14.08,0,22.75-13.08,27.15-22.41,4.33,2.54,8.5,5.14,12.47,7.75l-7.66,13.4c-2.12,3.71-.83,8.44,2.88,10.56,3.65,2.09,8.42.86,10.55-2.88l6.94-12.14c11.96,9.04,19.88,17.14,19.88,21.2v2.58c0,4.27-3.47,7.74-7.74,7.74H28.37c-7.11,0-12.9-5.78-12.9-12.9h0Z"/>
  </g>
</svg>