<?xml version="1.0" encoding="UTF-8"?>
<svg id="Camada_2" data-name="Camada 2" xmlns="http://www.w3.org/2000/svg" viewBox="0 0 106.42 106.42">
  <g id="Camada_1-2" data-name="Camada 1">
    <path d="M79.81,39.91C79.81,17.87,61.95,0,39.91,0S0,17.87,0,39.91v39.91h39.91c22.03-.02,39.88-17.88,39.91-39.91ZM39.91,66.51H13.3v-26.6c0-14.69,11.91-26.6,26.6-26.6s26.6,11.91,26.6,26.6-11.91,26.6-26.6,26.6ZM106.42,70.95v35.47h-35.47c-12.66-.01-24.35-6.77-30.68-17.74,5-.03,9.97-.84,14.73-2.39,4.16,4.36,9.93,6.83,15.95,6.83h22.17v-22.17c0-6.03-2.48-11.8-6.85-15.96,1.56-4.75,2.37-9.72,2.41-14.72,10.96,6.33,17.72,18.02,17.74,30.68Z"/>
  </g>
</svg>