<?xml version="1.0" encoding="UTF-8"?>
<svg id="Camada_2" data-name="Camada 2" xmlns="http://www.w3.org/2000/svg" viewBox="0 0 106.42 106.42">
  <g id="Camada_1-2" data-name="Camada 1">
    <g>
      <path d="M82.03,0H24.39C10.92.01.01,10.92,0,24.39v57.64c.01,13.46,10.92,24.37,24.39,24.39h57.64c13.46-.01,24.37-10.92,24.39-24.39V24.39c-.01-13.46-10.92-24.37-24.39-24.39ZM93.12,82.03c0,6.12-4.96,11.09-11.09,11.09h-2.22v-4.43c0-14.69-11.91-26.6-26.6-26.6s-26.6,11.91-26.6,26.6v4.43h-2.22c-6.12,0-11.09-4.96-11.09-11.09V24.39c0-6.12,4.96-11.09,11.09-11.09h57.64c6.12,0,11.09,4.96,11.09,11.09v57.64Z"/>
      <circle cx="53.21" cy="37.69" r="15.52"/>
    </g>
  </g>
</svg>