<?xml version="1.0" encoding="UTF-8"?>
<svg id="Camada_2" data-name="Camada 2" xmlns="http://www.w3.org/2000/svg" viewBox="0 0 105.08 106.42">
  <g id="Camada_1-2" data-name="Camada 1">
    <path d="M35.47,53.21c-14.67,0-26.6-11.93-26.6-26.6S20.8,0,35.47,0s26.6,11.93,26.6,26.6-11.93,26.6-26.6,26.6ZM99.77,79.81c0-2.04-.39-3.97-.97-5.82l6.28-3.62-4.43-7.68-6.26,3.6c-2.68-2.89-6.18-4.99-10.15-5.9v-7.19h-8.87v7.19c-3.97.91-7.47,3.01-10.15,5.9l-6.26-3.6-4.43,7.68,6.28,3.62c-.57,1.85-.97,3.78-.97,5.82s.39,3.97.97,5.82l-6.28,3.62,4.43,7.68,6.26-3.6c2.68,2.89,6.18,4.99,10.15,5.9v7.19h8.87v-7.19c3.97-.91,7.47-3.01,10.15-5.9l6.26,3.6,4.43-7.68-6.28-3.62c.57-1.85.97-3.78.97-5.82ZM79.81,86.47c-3.67,0-6.65-2.98-6.65-6.65s2.98-6.65,6.65-6.65,6.65,2.98,6.65,6.65-2.98,6.65-6.65,6.65ZM44.34,79.81c0-6.47,1.76-12.51,4.78-17.74h-29.17c-11,0-19.95,8.95-19.95,19.95v24.39h56.41c-7.38-6.5-12.07-15.99-12.07-26.6Z"/>
  </g>
</svg>