<?xml version="1.0" encoding="UTF-8"?>
<svg id="Camada_2" data-name="Camada 2" xmlns="http://www.w3.org/2000/svg" viewBox="0 0 106.42 106.42">
  <g id="Camada_1-2" data-name="Camada 1">
    <path d="M90.9,0H15.52C6.95,0,0,6.95,0,15.52v90.9h106.42V15.52c0-8.57-6.95-15.52-15.52-15.52ZM93.12,15.52v6.65h-22.17v-8.87h19.95c1.22,0,2.22.99,2.22,2.22ZM48.78,13.3h8.87v22.17h-8.87V13.3ZM15.52,13.3h19.95v8.87H13.3v-6.65c0-1.22.99-2.22,2.22-2.22ZM13.3,93.12v-57.64h22.17v13.3h35.47v-13.3h22.17v57.64H13.3ZM64.3,70.95h19.95v13.3h-19.95v-13.3Z"/>
  </g>
</svg>