<?xml version="1.0" encoding="UTF-8"?>
<svg id="Camada_2" data-name="Camada 2" xmlns="http://www.w3.org/2000/svg" viewBox="0 0 118.65 108.97">
  <g id="Camada_1-2" data-name="Camada 1">
    <path d="M118.65,44.81c-.02-14.02-11.44-25.44-25.46-25.46h-8.4v-3.56c0-8.71-7.08-15.79-15.79-15.79H15.79C7.08,0,0,7.08,0,15.79v73.84h9.72c-.03.38-.04.76-.05,1.14,0,10.04,8.17,18.21,18.21,18.21s18.21-8.17,18.21-18.22c0-.38-.02-.75-.05-1.13h26.56c-.03.38-.04.76-.05,1.14,0,10.04,8.17,18.21,18.21,18.21s18.21-8.17,18.21-18.22c0-.38-.02-.75-.05-1.13h9.72v-44.81ZM106.42,60.6v16.79h-21.63v-16.79h21.63ZM84.79,31.58h8.4c7.3,0,13.23,5.94,13.23,13.23v3.56h-21.63v-16.79ZM90.77,96.75c-3.3,0-5.98-2.68-5.98-5.98,0-.39.04-.77.12-1.14h11.71c.08.37.12.76.12,1.14,0,3.3-2.68,5.98-5.98,5.98ZM27.88,96.75c-3.3,0-5.98-2.68-5.98-5.97,0-.39.04-.77.12-1.15h11.71c.08.37.12.76.12,1.14,0,3.3-2.68,5.98-5.98,5.98ZM12.23,15.79c0-1.96,1.6-3.56,3.56-3.56h53.21c1.96,0,3.56,1.6,3.56,3.56v61.61H12.23V15.79Z"/>
  </g>
</svg>