<?xml version="1.0" encoding="UTF-8"?>
<svg id="Camada_2" data-name="Camada 2" xmlns="http://www.w3.org/2000/svg" viewBox="0 0 719.11 120.59">
  <defs>
    <style>
      .cls-1 {
        fill: #fff;
      }
    </style>
  </defs>
  <g id="Camada_1-2" data-name="Camada 1">
    <g>
      <g>
        <path class="cls-1" d="M20.54,100.05h35.39l20.54,20.54H10.41c-5.75,0-10.41-4.66-10.41-10.41V10.44C0,4.67,4.67,0,10.44,0h35.12l20.54,20.54,35.96,35.95v28.83L37.28,20.54h-16.74v79.5Z"/>
        <path class="cls-1" d="M136.79,10.5v99.63c0,5.78-4.69,10.47-10.47,10.47h-37.23l-20.54-20.54-33.71-33.71v-29.16l60.97,60.97,1.76,1.91h18.78V20.54h-37.64L58.17,0h68.13c5.8,0,10.5,4.7,10.5,10.5Z"/>
      </g>
      <g>
        <path class="cls-1" d="M230.1,37.54c-5.15-2.81-11.5-4.24-18.9-4.24s-13.68,1.43-18.97,4.24c-5.89,3.22-8.88,7.3-8.88,12.13v25.69c0,4.98,2.99,9.11,8.88,12.27,5.14,2.82,11.53,4.24,18.97,4.24s13.75-1.43,18.89-4.24c5.99-3.17,9.03-7.3,9.03-12.28v-3.6h-11.79v3.6c0,.76-.73,1.99-4.21,3.56-3.72,1.68-7.74,2.53-11.93,2.53s-8.3-.85-11.94-2.53c-2.79-1.2-4.27-2.43-4.27-3.56v-25.69c0-.57.54-1.78,4.12-3.49,3.58-1.54,7.65-2.32,12.08-2.32s8.52.78,12,2.31c3.41,1.52,4.13,2.74,4.13,3.49v3.67h11.79v-3.67c0-4.78-3.04-8.86-9.02-12.13Z"/>
        <path class="cls-1" d="M297.98,37.54c-5.15-2.81-11.55-4.24-19.04-4.24s-13.75,1.43-19.04,4.24c-5.89,3.22-8.88,7.3-8.88,12.13v25.69c0,4.92,2.99,9.05,8.88,12.27,5.1,2.82,11.51,4.24,19.05,4.24s14.05-1.43,19.04-4.24c5.85-3.17,8.81-7.3,8.81-12.27v-25.69c0-4.83-2.96-8.91-8.81-12.13ZM294.99,75.35c0,.76-.73,1.99-4.21,3.57-3.63,1.67-7.61,2.52-11.85,2.52s-8.42-.85-12.16-2.53c-2.7-1.16-4.12-2.39-4.12-3.56v-25.69c0-1.08,1.41-2.29,4.05-3.49,3.63-1.54,7.75-2.32,12.23-2.32s8.34.78,12.02,2.32c2.65,1.11,4.05,2.32,4.05,3.48v25.69Z"/>
        <polygon class="cls-1" points="453.25 91.87 509.03 91.87 509.03 81.44 464.76 81.44 464.76 67.76 497.05 67.76 497.05 57.26 464.76 57.26 464.76 43.86 509.03 43.86 509.03 33.29 453.25 33.29 453.25 91.87"/>
        <path class="cls-1" d="M567.67,37.54c-5.15-2.81-11.5-4.24-18.9-4.24s-13.68,1.43-18.97,4.24c-5.89,3.22-8.88,7.3-8.88,12.13v25.69c0,4.98,2.99,9.11,8.88,12.27,5.14,2.82,11.53,4.24,18.97,4.24s13.76-1.43,18.89-4.24c5.99-3.17,9.03-7.3,9.03-12.28v-3.6h-11.79v3.6c0,.76-.73,1.99-4.21,3.56-3.72,1.68-7.74,2.53-11.93,2.53s-8.3-.85-11.94-2.53c-2.79-1.2-4.27-2.43-4.27-3.56v-25.69c0-.57.54-1.78,4.12-3.49,3.58-1.54,7.65-2.32,12.08-2.32s8.52.78,12,2.31c3.41,1.52,4.13,2.74,4.13,3.49v3.67h11.79v-3.67c0-4.78-3.04-8.86-9.02-12.13Z"/>
        <polygon class="cls-1" points="586.43 43.43 608.75 43.43 608.75 91.87 619.82 91.87 619.82 43.43 642.21 43.43 642.21 33.29 586.43 33.29 586.43 43.43"/>
        <path class="cls-1" d="M686.08,35.23c-1.59-2.72-5.52-2.71-7.09.01l-32.76,56.63h13.07l23.23-40.25,23.51,40.25h13.07l-33.04-56.64Z"/>
      </g>
      <path class="cls-1" d="M362.18,33.3h-31.3c-6.6,0-12,5.4-12,12v46.58h11.34v-42.56c0-2.8,2.29-5.09,5.08-5.09h22.46c2.8,0,5.09,2.29,5.09,5.09v42.56h11.33v-46.58c0-6.6-5.4-12-12-12Z"/>
      <path class="cls-1" d="M429.37,33.3h-31.3c-6.6,0-12,5.4-12,12v46.58h11.34v-42.56c0-2.8,2.29-5.09,5.08-5.09h22.46c2.8,0,5.09,2.29,5.09,5.09v42.56h11.33v-46.58c0-6.6-5.4-12-12-12Z"/>
    </g>
  </g>
</svg>