<?xml version="1.0" encoding="UTF-8"?>
<svg id="Camada_2" data-name="Camada 2" xmlns="http://www.w3.org/2000/svg" viewBox="0 0 215.31 231.11">
  <defs>
    <style>
      .cls-1 {
        fill: #31bca5;
      }
    </style>
  </defs>
  <g id="Camada_1-2" data-name="Camada 1">
    <g>
      <g>
        <path class="cls-1" d="M32.34,157.47h55.71l32.34,32.34H16.38c-9.05,0-16.38-7.33-16.38-16.38V16.43C0,7.35,7.35,0,16.43,0h55.27l32.34,32.34,56.6,56.59v45.37L58.68,32.34h-26.34v125.14Z"/>
        <path class="cls-1" d="M215.31,16.52v156.81c0,9.1-7.38,16.48-16.48,16.48h-58.6l-32.34-32.34-53.07-53.07v-45.9l95.96,95.96,2.77,3.01h29.56V32.34h-59.24L91.55,0h107.24c9.12,0,16.52,7.4,16.52,16.52Z"/>
      </g>
      <g>
        <g>
          <path d="M20.15,209.42c-2.05-1.12-4.59-1.69-7.54-1.69s-5.46.57-7.57,1.69c-2.35,1.28-3.54,2.91-3.54,4.84v10.25c0,1.99,1.19,3.63,3.54,4.9,2.05,1.12,4.6,1.69,7.57,1.69s5.49-.57,7.54-1.69c2.39-1.27,3.6-2.91,3.6-4.9v-1.44h-4.7v1.44c0,.3-.29.79-1.68,1.42-1.49.67-3.09,1.01-4.76,1.01s-3.31-.34-4.76-1.01c-1.11-.48-1.7-.97-1.7-1.42v-10.25c0-.23.22-.71,1.65-1.39,1.43-.61,3.05-.92,4.82-.92s3.4.31,4.79.92c1.36.61,1.65,1.09,1.65,1.39v1.46h4.7v-1.46c0-1.91-1.21-3.54-3.6-4.84Z"/>
          <path d="M47.24,209.42c-2.05-1.12-4.61-1.69-7.6-1.69s-5.49.57-7.6,1.69c-2.35,1.28-3.54,2.91-3.54,4.84v10.25c0,1.97,1.19,3.61,3.54,4.9,2.03,1.12,4.59,1.69,7.6,1.69s5.61-.57,7.6-1.69c2.33-1.27,3.52-2.91,3.52-4.9v-10.25c0-1.93-1.18-3.55-3.52-4.84ZM46.05,224.51c0,.3-.29.79-1.68,1.42-1.45.67-3.04,1.01-4.73,1.01s-3.36-.34-4.85-1.01c-1.08-.46-1.65-.95-1.65-1.42v-10.25c0-.43.56-.91,1.62-1.39,1.45-.61,3.09-.92,4.88-.92s3.33.31,4.8.92c1.06.44,1.61.92,1.61,1.39v10.25Z"/>
          <polygon points="109.21 231.1 131.47 231.1 131.47 226.94 113.8 226.94 113.8 221.48 126.68 221.48 126.68 217.29 113.8 217.29 113.8 211.95 131.47 211.95 131.47 207.73 109.21 207.73 109.21 231.1"/>
          <path d="M154.87,209.42c-2.05-1.12-4.59-1.69-7.54-1.69s-5.46.57-7.57,1.69c-2.35,1.28-3.54,2.91-3.54,4.84v10.25c0,1.99,1.19,3.63,3.54,4.9,2.05,1.12,4.6,1.69,7.57,1.69s5.49-.57,7.54-1.69c2.39-1.26,3.6-2.91,3.6-4.9v-1.44h-4.7v1.44c0,.3-.29.79-1.68,1.42-1.49.67-3.09,1.01-4.76,1.01s-3.31-.34-4.76-1.01c-1.11-.48-1.7-.97-1.7-1.42v-10.25c0-.23.22-.71,1.65-1.39,1.43-.61,3.05-.92,4.82-.92s3.4.31,4.79.92c1.36.61,1.65,1.09,1.65,1.39v1.46h4.7v-1.46c0-1.91-1.21-3.54-3.6-4.84Z"/>
          <polygon points="162.36 211.77 171.26 211.77 171.26 231.1 175.68 231.1 175.68 211.77 184.61 211.77 184.61 207.73 162.36 207.73 162.36 211.77"/>
          <path d="M202.12,208.5c-.63-1.08-2.2-1.08-2.83,0l-13.07,22.6h5.22l9.27-16.06,9.38,16.06h5.22l-13.18-22.61Z"/>
        </g>
        <path d="M72.86,207.73h-12.49c-2.63,0-4.79,2.16-4.79,4.79v18.59h4.53v-16.99c0-1.12.91-2.03,2.03-2.03h8.96c1.12,0,2.03.91,2.03,2.03v16.99h4.52v-18.59c0-2.63-2.16-4.79-4.79-4.79Z"/>
        <path d="M99.67,207.73h-12.49c-2.63,0-4.79,2.16-4.79,4.79v18.59h4.53v-16.99c0-1.12.91-2.03,2.03-2.03h8.96c1.12,0,2.03.91,2.03,2.03v16.99h4.52v-18.59c0-2.63-2.16-4.79-4.79-4.79Z"/>
      </g>
    </g>
  </g>
</svg>